<svg id="Sprite" xmlns="http://www.w3.org/2000/svg" viewBox="0 0 3000 150"><defs><style>.cls-1{fill:#603813;}.cls-2{fill:#8c6239;}.cls-3{fill:#fff;}.cls-3,.cls-4,.cls-6{stroke:#000;stroke-miterlimit:10;}.cls-5{fill:#754c24;}.cls-6{fill:none;}</style></defs><title>bs4</title><path class="cls-1" d="M2801,32.37a15.6,15.6,0,0,1,5,0c8,1.36,13,8.87,15.57,12.69,1.33,2,2.56,4.33,2.74,4.66,1.55,3,2.33,4.44,2.61,5.82,1.18,6-5.72,13.89-9.1,13-.86-.24-1.72-1.08-2.39-3.22a32.81,32.81,0,0,0-.61-6.9,20.57,20.57,0,0,0-1.92-6,25.5,25.5,0,0,0-3-4c-5.06-6.58-4.21-8.61-7.58-10.76-1.53-1-3.08-1.44-3.19-2.63C2799.09,33.94,2800.12,33,2801,32.37Z"/><path class="cls-1" d="M2783.56,134.6c0,2.56,4.44,4,5.76,4.48a15.26,15.26,0,0,0,8.56.2,151.88,151.88,0,0,0,7.11-17.66c5.67-17.18,3.35-20.63,2.28-21.77a5.44,5.44,0,0,0-4.65-1.87c-1.88.35-2.32,2.86-5.42,10.78-1.39,3.56-1.21,2.87-1.87,4.65A86.06,86.06,0,0,0,2791.2,129l-3.91,1.67C2787,130.83,2783.57,132.36,2783.56,134.6Z"/><path class="cls-1" d="M2909.91,138.87c1-2.57,2-5.24,3-8a171.28,171.28,0,0,0,6-22c-3.14-3.6-6.32-8.56-5.4-13.71.74-4.08,3.43-5.35,3.3-8.86-.18-4.71-5.87-9.83-11.25-10-9.08-.24-16.69,12.14-14.45,19.33.6,1.93,2.32,3.69,5.75,7.19a30.18,30.18,0,0,0,8.27,6.31,27.07,27.07,0,0,0,3.35,1.35l-4.23,19.29a6.58,6.58,0,0,0-3.93.8c-1.85,1.07-3.41,3.23-3.12,4.74C2897.68,137.6,2902.74,139.14,2909.91,138.87Z"/><path class="cls-2" d="M2751.81,45.38a24.62,24.62,0,0,0,4,7,15.43,15.43,0,0,0,6,5,13,13,0,0,0,4,1l14-3a27.69,27.69,0,0,1,2,5,27.34,27.34,0,0,1,1,6c.48,6.4,3,7.94,4,14,1.06,6.43-1.45,6.57-1,15,.24,4.67.46,8.76,3,13,5,8.36,14.43,9.93,15,10a22.25,22.25,0,0,0,10-1c12.1-3.52,18.14-5.28,26.06-10,8.72-5.22,25.42-11,60.14-14l34.07,6a19.87,19.87,0,0,0,3-5c.71-1.73,2.88-7,1-12-.95-2.57-2.21-3.1-3.25-6.68a39.76,39.76,0,0,1-.76-4.35c-2-5.39-11.36-10.36-42.09-9a271.8,271.8,0,0,0-58.13,9,21.68,21.68,0,0,1-7,0,22,22,0,0,1-8-3,102,102,0,0,1-4-13c-1.5-6.44-1.41-8.94-1-11,.54-2.75,1.27-3,2-6,.85-3.47,1.16-8.34,0-11-2.28-5.28-12.7-7.84-25.06-5a16.67,16.67,0,0,0-10,11,94.19,94.19,0,0,0-13,4A96,96,0,0,0,2751.81,45.38Z"/><path class="cls-3" d="M2783.38,33.86c-.76-.62-.18-3.61,2-5,2-1.26,4.69-.91,5,0C2791,30.42,2784.65,34.89,2783.38,33.86Z"/><ellipse class="cls-4" cx="2785.89" cy="30.85" rx="2" ry="1.5" transform="translate(975.58 2148.61) rotate(-50.11)"/><path class="cls-4" d="M2752.31,44.88l9-4a14.43,14.43,0,0,1-1,2,17.56,17.56,0,0,1-6,6,3.4,3.4,0,0,1-2-2A3.35,3.35,0,0,1,2752.31,44.88Z"/><path class="cls-5" d="M2802.17,34.24c-3.23-.1-5,7.3-9.57,17.11a121,121,0,0,1-16.12,25.51,2.61,2.61,0,0,0,.11,2c.62,1.06,2.47,1,4.06.77,3-.32,8.24-1.34,15.26-5.38a11.37,11.37,0,0,0,3.83-3.23,11.21,11.21,0,0,0,1.77-4.11c1.44-5.45,3.52-5.88,5.38-11.35a22.52,22.52,0,0,0,1.49-9.12C2808,41.15,2805.23,34.34,2802.17,34.24Z"/><path class="cls-5" d="M2808.59,73.93c-2.41.37-3.64,4-5,8-1.52,4.45-4.86,14.23-.26,22.41,1.9,3.38,4,4.44,6.65,6.8,4.79,4.28,10.25,11.82,12.71,26.14a7.5,7.5,0,0,0-2.73,3.56c-.24.68-1.15,3.2-.05,4.48,1.55,1.81,6.18,0,9.43-1.24,3.58-1.39,5.85-2.27,6.77-4.4s-.14-4.45-1.27-7.19c-3.24-7.86-.24-3.92-5.62-18.44-3-8.18-3-6.72-5.23-13.06-3.31-9.32-3.12-11.61-6.08-17.1C2816.07,80.53,2812.21,73.38,2808.59,73.93Z"/><path class="cls-5" d="M2956.89,131.09q-4.71-8.73-9.36-18.18-2.72-5.56-5.23-11a27,27,0,0,1-4-3,26.52,26.52,0,0,1-3-3.3,12.38,12.38,0,0,0,1-7.58c-1.48-6.9-9.32-9.64-11.29-10.32-9.1-3.19-17.44,1.36-19.13,2.33a12.45,12.45,0,0,0-6.61,6.06c-2.17,4.85.25,9.82,1.37,12.11,6.7,13.77,32.48,14.18,34.28,14.19l9.36,18.18a8.09,8.09,0,0,0-2.07,3.71,8.26,8.26,0,0,0,.41,5.1,18.54,18.54,0,0,0,14.32-8.26Z"/><path class="cls-6" d="M2766.62,58a37.52,37.52,0,0,0,15.49-12.24"/><path class="cls-2" d="M2978.32,125.57c.86-1-10.71-10.06-24.05-27.07a199.17,199.17,0,0,1-15-22,18.75,18.75,0,0,0-4-5c-1.64-1.44-4.32-3.81-6-3s-1.79,4.51-1,7c1.57,4.94,7.1,6.74,8,7,1.85,3,4.53,7.21,8,12a125.26,125.26,0,0,0,14,17C2967.16,120.24,2977.55,126.49,2978.32,125.57Z"/><path class="cls-1" d="M2552.75,33.87a16,16,0,0,1,4.95-.78c8.15.06,14.28,6.66,17.41,10,1.63,1.76,3.23,3.86,3.45,4.15,2,2.67,3,4,3.51,5.33,2.14,5.74-3.4,14.63-6.89,14.27-.88-.09-1.87-.79-2.87-2.79a33.18,33.18,0,0,0-1.71-6.71,20.84,20.84,0,0,0-2.88-5.65,25.19,25.19,0,0,0-3.56-3.52c-6.06-5.67-5.54-7.81-9.21-9.4-1.68-.72-3.28-.92-3.58-2.07C2551.12,35.73,2552,34.64,2552.75,33.87Z"/><path class="cls-1" d="M2525.17,131.69c-.53,2.5,3.54,4.85,4.74,5.55a15.25,15.25,0,0,0,8.34,1.93,153.06,153.06,0,0,0,10.54-15.86c9-15.67,7.45-19.52,6.64-20.86a5.5,5.5,0,0,0-4.18-2.77c-1.91,0-2.85,2.33-7.49,9.46-2.08,3.2-1.77,2.57-2.77,4.17a87.3,87.3,0,0,0-7.21,14.47l-4.16.84C2529.3,128.69,2525.64,129.5,2525.17,131.69Z"/><path class="cls-1" d="M2662,138.93c.87-2.62,1.72-5.35,2.51-8.18a170,170,0,0,0,4.68-22.38c-3.35-3.4-6.82-8.15-6.21-13.36.48-4.11,3.1-5.54,2.76-9-.47-4.69-6.45-9.45-11.84-9.27-9.07.3-15.93,13.12-13.26,20.17.72,1.89,2.54,3.54,6.17,6.83a30.11,30.11,0,0,0,8.64,5.79,25.6,25.6,0,0,0,3.43,1.16l-3.06,19.5a6.58,6.58,0,0,0-3.87,1c-1.79,1.17-3.22,3.43-2.83,4.91C2649.66,138.41,2654.81,139.63,2662,138.93Z"/><path class="cls-2" d="M2502,45.72a24.44,24.44,0,0,0,4,7,15.39,15.39,0,0,0,6,5,12.8,12.8,0,0,0,4,1l14-3a26.94,26.94,0,0,1,2,5,27.34,27.34,0,0,1,1,6c.48,6.4,3,7.94,4,14,1.06,6.43-1.45,6.57-1,15,.24,4.67.46,8.76,3,13,5,8.36,14.44,9.93,15,10a22.27,22.27,0,0,0,10-1c12.09-3.52,18.14-5.28,26.06-10,8.72-5.23,25.42-11,60.13-14l34.08,6a20.17,20.17,0,0,0,3-5c.71-1.73,2.88-7,1-12-1-2.57-2.21-3.1-3.25-6.68a37.29,37.29,0,0,1-.76-4.35c-2-5.39-11.37-10.36-42.09-9a271.88,271.88,0,0,0-58.14,9,21.63,21.63,0,0,1-7,0,22,22,0,0,1-8-3,102,102,0,0,1-4-13c-1.51-6.44-1.41-8.94-1-11,.54-2.74,1.26-3,2-6,.85-3.47,1.17-8.34,0-11-2.28-5.28-12.69-7.84-25-5a16.61,16.61,0,0,0-10,11,94.19,94.19,0,0,0-13,4A95.19,95.19,0,0,0,2502,45.72Z"/><path class="cls-3" d="M2533.55,34.19c-.76-.62-.18-3.61,2-5,2-1.26,4.69-.91,5,0C2541.12,30.75,2534.82,35.22,2533.55,34.19Z"/><ellipse class="cls-4" cx="2536.06" cy="31.18" rx="2" ry="1.5" transform="translate(885.72 1957.04) rotate(-50.11)"/><path class="cls-4" d="M2502.48,45.21l9-4a17.74,17.74,0,0,1-1,2,17.47,17.47,0,0,1-6,6,3.4,3.4,0,0,1-2-2A3.28,3.28,0,0,1,2502.48,45.21Z"/><path class="cls-5" d="M2552.62,34c-3.14-.73-6.33,6.18-12.73,14.9a120.64,120.64,0,0,1-20.8,21.86,2.56,2.56,0,0,0-.28,2c.4,1.16,2.23,1.41,3.83,1.55,3,.26,8.33.3,16-2.29a11.28,11.28,0,0,0,4.39-2.42,11,11,0,0,0,2.54-3.69c2.47-5,4.6-5.07,7.5-10.07a22.64,22.64,0,0,0,3.25-8.65C2557,41.91,2555.61,34.68,2552.62,34Z"/><path class="cls-5" d="M2559,75.64c-2.37.58-3.27,4.28-4.29,8.43-1.12,4.56-3.58,14.6,1.73,22.34,2.19,3.19,4.38,4.07,7.22,6.19,5.15,3.83,11.25,10.86,15,24.91a7.56,7.56,0,0,0-2.4,3.79c-.18.69-.86,3.29.34,4.47,1.71,1.66,6.16-.53,9.29-2.07,3.44-1.7,5.63-2.78,6.35-5s-.52-4.42-1.89-7.05c-3.92-7.53-.59-3.88-7.23-17.87-3.73-7.87-3.55-6.42-6.36-12.54-4.13-9-4.14-11.3-7.57-16.5C2567.05,81.56,2562.58,74.77,2559,75.64Z"/><path class="cls-6" d="M2516.79,58.35a37.4,37.4,0,0,0,15.48-12.24"/><path class="cls-2" d="M2733.67,120.17c.73-1.12-11.8-8.75-27-24.11a199.56,199.56,0,0,1-17.47-20.18,18.72,18.72,0,0,0-4.56-4.51c-1.79-1.25-4.73-3.3-6.32-2.3s-1.26,4.69-.19,7.09c2.13,4.72,7.83,5.87,8.78,6,2.19,2.79,5.33,6.64,9.35,11a125.55,125.55,0,0,0,15.89,15.31C2722,116.17,2733,121.18,2733.67,120.17Z"/><path class="cls-5" d="M2688.68,141.1q-.55-9.89-.73-20.43-.09-6.19,0-12.19a25.15,25.15,0,0,1-2.32-4.44,26.26,26.26,0,0,1-1.34-4.28,12.37,12.37,0,0,0,4.1-6.44c1.61-6.87-4.32-12.69-5.81-14.15-6.88-6.76-16.36-6.2-18.3-6a12.46,12.46,0,0,0-8.56,2.66c-4,3.46-4,9-3.92,11.55.19,15.31,23.34,26.66,25,27.44l.72,20.43a8.09,8.09,0,0,0-3.45,2.48,8.29,8.29,0,0,0-1.8,4.78,18.44,18.44,0,0,0,16.48-1.37Z"/><path class="cls-1" d="M2303.34,34a15.77,15.77,0,0,1,4.95-.78c8.15.06,14.29,6.65,17.42,10,1.63,1.75,3.22,3.85,3.44,4.15,2,2.66,3,4,3.51,5.31,2.14,5.73-3.4,14.61-6.88,14.25-.89-.09-1.88-.79-2.88-2.79a32.46,32.46,0,0,0-1.71-6.69,20.6,20.6,0,0,0-2.87-5.64,25.36,25.36,0,0,0-3.57-3.52c-6.06-5.66-5.54-7.8-9.21-9.38-1.67-.72-3.27-.92-3.57-2.07S2302.57,34.79,2303.34,34Z"/><path class="cls-1" d="M2279.65,136.58c-.14,2.54,4.23,4.25,5.53,4.75a15.21,15.21,0,0,0,8.54.63,150.54,150.54,0,0,0,8-17.26c6.53-16.84,4.38-20.39,3.37-21.59a5.48,5.48,0,0,0-4.55-2.1c-1.89.26-2.46,2.74-6,10.48-1.57,3.48-1.35,2.8-2.1,4.55a86.25,86.25,0,0,0-4.9,15.37l-4,1.46C2283.27,133,2279.77,134.35,2279.65,136.58Z"/><path class="cls-1" d="M2429.19,137.53q.63-4.09,1.06-8.49a168.15,168.15,0,0,0,.72-22.8c-3.88-2.77-8.13-6.85-8.43-12.07-.24-4.13,2.09-6,1.15-9.37-1.27-4.53-8-8.18-13.27-7.07-8.88,1.86-13.41,15.66-9.55,22.12,1,1.74,3.11,3,7.26,5.65a30.14,30.14,0,0,0,9.51,4.21,25.44,25.44,0,0,0,3.58.54q.18,9.85.37,19.71a6.55,6.55,0,0,0-3.63,1.69c-1.56,1.46-2.57,3.93-1.94,5.32C2417,139.13,2422.29,139.45,2429.19,137.53Z"/><path class="cls-2" d="M2252.57,45.85a24.68,24.68,0,0,0,4,7,15.46,15.46,0,0,0,6,5,13.38,13.38,0,0,0,4,1l14-3a26.68,26.68,0,0,1,3,11c.48,6.39,3,7.93,4,14,1.06,6.42-1.45,6.56-1,15,.24,4.67.46,8.74,3,13,5,8.35,14.43,9.92,15,10a22.11,22.11,0,0,0,10-1c12.1-3.51,18.14-5.27,26.06-10,8.72-5.22,25.42-11,60.14-14l34.07,6a19.78,19.78,0,0,0,3-5c.71-1.72,2.88-6.95,1-12-.95-2.56-2.21-3.09-3.25-6.66a40.17,40.17,0,0,1-.76-4.34c-2-5.39-11.36-10.35-42.09-9a272.32,272.32,0,0,0-58.13,9,21.89,21.89,0,0,1-15-3,102.34,102.34,0,0,1-4-13c-1.5-6.43-1.41-8.93-1-11,.54-2.74,1.27-3,2-6,.84-3.47,1.16-8.32,0-11-2.28-5.27-12.7-7.83-25.06-5a16.65,16.65,0,0,0-10,11,96.27,96.27,0,0,0-29.07,12Z"/><path class="cls-3" d="M2284.14,34.34c-.76-.61-.18-3.6,2-5,2-1.26,4.69-.9,5,0C2291.71,30.91,2285.41,35.37,2284.14,34.34Z"/><ellipse class="cls-4" cx="2286.65" cy="31.34" rx="2" ry="1.5" transform="translate(791.07 1761.37) rotate(-49.94)"/><path class="cls-5" d="M2303.21,34.15c-3.14-.73-6.33,6.17-12.73,14.88a121,121,0,0,1-20.8,21.82,2.53,2.53,0,0,0-.28,2c.4,1.17,2.23,1.42,3.83,1.55,3,.26,8.34.3,16-2.29a10.34,10.34,0,0,0,6.94-6.09c2.47-5,4.59-5.07,7.49-10.06a22.35,22.35,0,0,0,3.25-8.64C2307.6,42.05,2306.2,34.84,2303.21,34.15Z"/><path class="cls-5" d="M2305.72,73.25c-2.37.57-3.28,4.27-4.29,8.41-1.12,4.55-3.59,14.58,1.72,22.31,2.19,3.18,4.39,4.06,7.23,6.17,5.14,3.83,11.25,10.85,15,24.88a7.41,7.41,0,0,0-2.4,3.77c-.19.7-.86,3.29.34,4.46,1.71,1.67,6.16-.52,9.28-2.06,3.45-1.7,5.64-2.77,6.36-5s-.53-4.41-1.89-7c-3.93-7.53-.59-3.88-7.23-17.85-3.74-7.86-3.56-6.41-6.37-12.52-4.12-9-4.13-11.27-7.57-16.47C2313.76,79.15,2309.28,72.38,2305.72,73.25Z"/><path class="cls-5" d="M2435.77,142.73q-1-9.85-1.55-20.35-.34-6.18-.54-12.16a26.31,26.31,0,0,1-4-8.55,12.34,12.34,0,0,0,3.83-6.59c1.32-6.93-4.83-12.49-6.38-13.88-7.15-6.46-16.6-5.51-18.53-5.27a12.48,12.48,0,0,0-8.45,3c-3.88,3.62-3.58,9.13-3.44,11.68.81,15.27,24.4,25.64,26.05,26.34l1.56,20.35a8.07,8.07,0,0,0-5,7.47,18.52,18.52,0,0,0,16.4-2.05Z"/><path class="cls-6" d="M2267.38,58.47a37.4,37.4,0,0,0,15.49-12.23"/><path class="cls-2" d="M2487,113c.6-1.19-12.71-7.36-29.56-20.88a199.42,199.42,0,0,1-19.63-18,19,19,0,0,0-5-4c-1.92-1-5.07-2.73-6.54-1.56s-.73,4.79.61,7c2.65,4.44,8.44,4.94,9.4,5,2.49,2.52,6.05,6,10.53,9.88a126,126,0,0,0,17.53,13.39C2474.88,110.29,2486.42,114,2487,113Z"/><path class="cls-4" d="M2252.73,45.21l9-4a15.53,15.53,0,0,1-1,2,17.56,17.56,0,0,1-6,6,3.43,3.43,0,0,1-2-2A3.24,3.24,0,0,1,2252.73,45.21Z"/><path class="cls-1" d="M2047.9,33.19a15.72,15.72,0,0,1,5-.13c8.06,1.1,13.3,8.44,16,12.18,1.39,2,2.7,4.25,2.88,4.57,1.65,2.91,2.48,4.36,2.79,5.73,1.39,6-5.26,14.07-8.67,13.27-.86-.21-1.76-1-2.49-3.15a32.14,32.14,0,0,0-.83-6.86,20.85,20.85,0,0,0-2.12-6,25.1,25.1,0,0,0-3.08-4c-5.28-6.41-4.49-8.46-7.92-10.51-1.57-.93-3.13-1.34-3.28-2.52C2046,34.82,2047,33.85,2047.9,33.19Z"/><path class="cls-1" d="M2031.12,138.35c.16,2.55,4.71,3.74,6.05,4.09a15.31,15.31,0,0,0,8.55-.37,152.77,152.77,0,0,0,5.92-18.1c4.52-17.51,2-20.8.82-21.88a5.48,5.48,0,0,0-4.76-1.55c-1.85.48-2.12,3-4.69,11.12-1.15,3.64-1,2.94-1.56,4.76a86.83,86.83,0,0,0-3.07,15.87l-3.8,1.92C2034.3,134.36,2031,136.12,2031.12,138.35Z"/><path class="cls-1" d="M2193.19,130.21c-.76-2.66-1.61-5.39-2.56-8.17a170.05,170.05,0,0,0-8.84-21.08c-4.69-.91-10.24-2.85-12.69-7.48-1.93-3.67-.59-6.33-2.86-9-3-3.6-10.67-4.13-15-.93-7.3,5.4-5.68,19.85.52,24.14,1.66,1.15,4.09,1.47,8.95,2.13a30,30,0,0,0,10.4-.13,27.07,27.07,0,0,0,3.48-1q4.26,8.89,8.54,17.8a6.48,6.48,0,0,0-2.6,3c-.81,2-.71,4.65.45,5.65C2182.78,136.74,2187.72,134.83,2193.19,130.21Z"/><path class="cls-2" d="M2002.22,45.8a24.38,24.38,0,0,0,4,7,15.39,15.39,0,0,0,6,5,13,13,0,0,0,4,1l14-3a26.38,26.38,0,0,1,2,5,28,28,0,0,1,1,6c.48,6.4,3,7.94,4,14,1.06,6.43-1.45,6.57-1,15,.25,4.67.46,8.75,3,13,5,8.36,14.44,9.93,15,10a22.44,22.44,0,0,0,10-1c12.09-3.52,18.14-5.28,26.06-10,8.72-5.22,25.42-11,60.13-14l34.08,6a20,20,0,0,0,3-5c.72-1.72,2.89-7,1-12-1-2.57-2.22-3.1-3.26-6.68a36.36,36.36,0,0,1-.75-4.35c-2-5.39-11.37-10.37-42.1-9a271.89,271.89,0,0,0-58.13,9,21.91,21.91,0,0,1-7,0,22.14,22.14,0,0,1-8-3,100.87,100.87,0,0,1-4-13c-1.51-6.44-1.41-8.94-1-11,.53-2.75,1.26-3,2-6,.85-3.47,1.16-8.34,0-11-2.28-5.28-12.7-7.84-25.05-5a16.65,16.65,0,0,0-10,11,94.61,94.61,0,0,0-13,4A96.23,96.23,0,0,0,2002.22,45.8Z"/><path class="cls-3" d="M2033.79,34.28c-.76-.62-.18-3.61,2-5,2-1.26,4.7-.91,5,0C2041.36,30.84,2035.05,35.3,2033.79,34.28Z"/><ellipse class="cls-4" cx="2036.29" cy="31.27" rx="2" ry="1.5" transform="translate(706.39 1573.62) rotate(-50.11)"/><path class="cls-5" d="M2050,34.35c-3.11.87-2.59,8.46-4,19.19a120.94,120.94,0,0,1-7.75,29.16,2.56,2.56,0,0,0,.71,1.88c.91.83,2.64.17,4.1-.48,2.72-1.2,7.46-3.74,13-9.7a11.43,11.43,0,0,0,2.69-4.23,11.08,11.08,0,0,0,.46-4.45c-.26-5.63,1.6-6.66,1.74-12.44a22.61,22.61,0,0,0-1.3-9.15C2057.6,39.19,2052.9,33.53,2050,34.35Z"/><path class="cls-5" d="M2055.37,69.62c-2.37.58-3.28,4.28-4.3,8.42-1.12,4.57-3.58,14.61,1.73,22.35,2.19,3.19,4.38,4.07,7.22,6.18,5.15,3.84,11.25,10.87,15,24.92a7.5,7.5,0,0,0-2.41,3.78c-.18.7-.86,3.3.35,4.47,1.7,1.67,6.15-.52,9.28-2.06,3.45-1.7,5.63-2.78,6.36-5s-.53-4.42-1.9-7c-3.92-7.54-.58-3.88-7.23-17.87-3.73-7.87-3.55-6.43-6.36-12.55-4.12-9-4.14-11.29-7.57-16.49C2063.41,75.54,2058.93,68.75,2055.37,69.62Z"/><path class="cls-6" d="M2017,58.44a37.44,37.44,0,0,0,9-5.4,37.82,37.82,0,0,0,6.52-6.84"/><path class="cls-2" d="M2236.61,113c.6-1.19-12.71-7.37-29.56-20.91A199.34,199.34,0,0,1,2187.41,74a18.86,18.86,0,0,0-5-4c-1.92-1-5.07-2.73-6.54-1.56s-.72,4.8.62,7.06c2.64,4.45,8.44,5,9.39,5,2.5,2.52,6.06,6,10.54,9.89a125.17,125.17,0,0,0,17.52,13.42C2224.52,110.35,2236.06,114.09,2236.61,113Z"/><path class="cls-4" d="M2002.38,45l9-4a17,17,0,0,1-1,2,17.57,17.57,0,0,1-6,6,3.42,3.42,0,0,1-2-2A3.19,3.19,0,0,1,2002.38,45Z"/><path class="cls-5" d="M2170.54,142.93q2.72-9.54,6-19.55,1.93-5.89,3.95-11.53a26,26,0,0,1-.74-5,26.35,26.35,0,0,1,.14-4.48,12.38,12.38,0,0,0,6-4.74c3.76-6,.07-13.41-.86-15.27-4.29-8.64-13.44-11.21-15.33-11.7a12.44,12.44,0,0,0-8.95-.29c-4.94,2-6.68,7.21-7.49,9.63-4.82,14.53,13.34,32.84,14.62,34.1l-6,19.54a8.17,8.17,0,0,0-4.08,1.22,8.26,8.26,0,0,0-3.26,3.93,18.53,18.53,0,0,0,16,4.1Z"/><path class="cls-1" d="M1800.79,29.44a15.6,15.6,0,0,1,4.78,1.51c7.26,3.68,9.8,12.33,11.1,16.74.68,2.3,1.16,4.9,1.23,5.26.61,3.29.91,4.93.76,6.33-.64,6.09-9.57,11.58-12.53,9.7-.75-.48-1.33-1.54-1.32-3.79a33.16,33.16,0,0,0,1.45-6.76,20.45,20.45,0,0,0,0-6.34,24.89,24.89,0,0,0-1.62-4.74c-2.89-7.78-1.47-9.46-4-12.52-1.17-1.39-2.52-2.29-2.27-3.46C1798.49,30.37,1799.76,29.78,1800.79,29.44Z"/><path class="cls-1" d="M1788.05,139.84c.6,2.49,5.28,2.86,6.66,3a15.36,15.36,0,0,0,8.36-1.86,151.06,151.06,0,0,0,2.66-18.86c1.39-18-1.69-20.82-3-21.68a5.5,5.5,0,0,0-5-.7c-1.73.8-1.56,3.34-2.67,11.77-.5,3.79-.49,3.08-.7,5a86.36,86.36,0,0,0-.26,16.16l-3.4,2.56C1790.48,135.35,1787.52,137.67,1788.05,139.84Z"/><path class="cls-1" d="M1945.29,129.93q-.64-4.09-1.54-8.43a170.75,170.75,0,0,0-6.17-22c-4.54-1.48-9.81-4.1-11.67-9-1.46-3.87.2-6.35-1.72-9.29-2.57-3.95-10.08-5.42-14.77-2.78-7.91,4.46-8.09,19-2.47,24,1.51,1.35,3.88,2,8.63,3.22a29.94,29.94,0,0,0,10.33,1.16,27.31,27.31,0,0,0,3.57-.55q3.13,9.35,6.28,18.71a6.6,6.6,0,0,0-3,2.71c-1,1.87-1.27,4.53-.24,5.67C1934.14,135.12,1939.28,133.84,1945.29,129.93Z"/><path class="cls-2" d="M1752,45.21a24.62,24.62,0,0,0,4,7,15.48,15.48,0,0,0,6,5,13.38,13.38,0,0,0,4,1l14-3a26.78,26.78,0,0,1,2,5,27.34,27.34,0,0,1,1,6c.48,6.4,3,7.94,4,14,1.06,6.43-1.45,6.57-1,15,.24,4.68.46,8.76,3,13,5,8.37,14.43,9.94,15,10a22.24,22.24,0,0,0,10-1c12.1-3.52,18.14-5.28,26.06-10,8.72-5.22,25.42-11,60.14-14l34.07,6a20,20,0,0,0,3-5c.71-1.72,2.88-7,1-12-1-2.57-2.21-3.11-3.25-6.68a39.76,39.76,0,0,1-.76-4.35c-2-5.39-11.36-10.37-42.09-9a271.8,271.8,0,0,0-58.13,9,21.83,21.83,0,0,1-15-3,102,102,0,0,1-4-13c-1.5-6.43-1.41-8.93-1-11,.54-2.75,1.27-3,2-6,.84-3.47,1.16-8.34,0-11-2.28-5.28-12.7-7.84-25.06-5a16.68,16.68,0,0,0-10,11,97,97,0,0,0-13,4A96,96,0,0,0,1752,45.21Z"/><path class="cls-3" d="M1783.59,33.69c-.76-.62-.18-3.61,2-5,2-1.26,4.69-.9,5,0C1791.16,30.25,1784.86,34.71,1783.59,33.69Z"/><ellipse class="cls-4" cx="1786.1" cy="30.68" rx="2" ry="1.5" transform="translate(617.1 1381.44) rotate(-50.11)"/><path class="cls-5" d="M1798.88,33.59c-2.44,2.12,1.27,8.76,4.55,19.07a121,121,0,0,1,5.44,29.68,2.58,2.58,0,0,0,1.44,1.4c1.17.36,2.46-1,3.51-2.19,2-2.24,5.14-6.56,7.57-14.29a11.5,11.5,0,0,0,.63-5,11.3,11.3,0,0,0-1.49-4.23c-2.64-5-1.4-6.7-3.74-12a22.5,22.5,0,0,0-5.08-7.72C1807.86,34.7,1801.19,31.59,1798.88,33.59Z"/><path class="cls-5" d="M1812,75.61c-2.14-1.17-5.3,1-8.85,3.34-3.89,2.62-12.47,8.39-13.75,17.69-.53,3.84.5,6,1.18,9.44,1.22,6.3,1,15.61-5.7,28.5a7.44,7.44,0,0,0-4.32,1.18c-.61.39-2.85,1.86-2.75,3.54.14,2.38,4.91,3.75,8.25,4.71,3.7,1.07,6,1.74,8.06.59s2.59-3.62,3.34-6.49c2.17-8.21,2.18-3.26,6.68-18.08,2.54-8.34,1.69-7.15,3.73-13.56,3-9.43,4.54-11.14,5.51-17.3C1813.93,85.39,1815.18,77.36,1812,75.61Z"/><path class="cls-6" d="M1766.83,57.85a37.32,37.32,0,0,0,15.48-12.25"/><path class="cls-2" d="M1994.9,102.63c.35-1.29-13.93-4.65-33.17-14.51a200.48,200.48,0,0,1-22.88-13.74,18.9,18.9,0,0,0-5.74-2.87c-2.09-.63-5.52-1.66-6.72-.22s.26,4.85,2,6.8c3.49,3.83,9.27,3.14,10.22,3,2.95,2,7.13,4.65,12.31,7.57a125.47,125.47,0,0,0,19.87,9.6C1982.53,102.46,1994.59,103.79,1994.9,102.63Z"/><path class="cls-4" d="M1752.18,44.45l9-4a16.94,16.94,0,0,1-1,2,17.51,17.51,0,0,1-6,6,3.43,3.43,0,0,1-2-2A3.24,3.24,0,0,1,1752.18,44.45Z"/><path class="cls-5" d="M1909.87,141.66q5-8.58,10.61-17.48,3.33-5.24,6.66-10.21a26.15,26.15,0,0,1,.5-5,27,27,0,0,1,1.23-4.31,12.36,12.36,0,0,0,7-3.13c5.11-4.87,3.35-13,2.91-15-2-9.43-10.28-14.16-12-15.1a12.45,12.45,0,0,0-8.62-2.47c-5.26.69-8.23,5.35-9.61,7.5-8.24,12.91,4.88,35.1,5.81,36.64l-10.6,17.48a8,8,0,0,0-4.25.18,8.25,8.25,0,0,0-4.13,3,18.4,18.4,0,0,0,5.91,5.42A18.63,18.63,0,0,0,1909.87,141.66Z"/><path class="cls-1" d="M1549.15,29.33a16.18,16.18,0,0,1,4.14,2.83c5.89,5.63,5.82,14.65,5.79,19.24,0,2.4-.3,5-.34,5.39-.37,3.32-.55,5-1.1,6.28-2.38,5.65-12.51,8.32-14.8,5.66-.58-.67-.83-1.86-.18-4a32.18,32.18,0,0,0,3.35-6.05,20.34,20.34,0,0,0,1.79-6.09,24.79,24.79,0,0,0-.18-5c-.51-8.29,1.33-9.49-.25-13.16-.73-1.67-1.75-2.92-1.18-4S1548.07,29.36,1549.15,29.33Z"/><path class="cls-1" d="M1552.45,135.88c1.49,2.07,6,.66,7.29.24a15.18,15.18,0,0,0,7-4.86,149.9,149.9,0,0,0-4.61-18.47c-5.49-17.24-9.39-18.67-10.93-19a5.49,5.49,0,0,0-4.87,1.22c-1.31,1.38-.19,3.67,1.95,11.91,1,3.7.7,3,1.21,4.86a86.82,86.82,0,0,0,5.83,15.07l-2.19,3.65C1553,130.8,1551.15,134.06,1552.45,135.88Z"/><path class="cls-1" d="M1702.58,122.42q-2-3.65-4.24-7.43a169.35,169.35,0,0,0-13.12-18.72c-4.77.11-10.61-.61-14-4.62-2.67-3.17-1.92-6.05-4.7-8.2-3.74-2.87-11.31-1.76-14.86,2.29-6,6.82-1.33,20.59,5.63,23.47,1.87.77,4.32.57,9.21.17a29.92,29.92,0,0,0,10.13-2.33,26,26,0,0,0,3.19-1.71L1692,120.92a6.57,6.57,0,0,0-1.89,3.53c-.36,2.11.3,4.69,1.65,5.43C1693.79,131,1698.21,128.1,1702.58,122.42Z"/><path class="cls-2" d="M1502.11,45.41a24.62,24.62,0,0,0,4,7,15.39,15.39,0,0,0,6,5,13.08,13.08,0,0,0,4,1l14-3a26.77,26.77,0,0,1,3,11c.48,6.4,3,7.94,4,14,1.06,6.43-1.45,6.57-1,15,.24,4.67.46,8.75,3,13,5,8.36,14.43,9.93,15,10a22.4,22.4,0,0,0,10-1c12.1-3.52,18.14-5.28,26.06-10,8.72-5.22,25.42-11,60.14-14l34.07,6a20,20,0,0,0,3-5c.71-1.72,2.88-7,1-12-1-2.57-2.21-3.1-3.25-6.68a39.76,39.76,0,0,1-.76-4.35c-2-5.39-11.36-10.36-42.09-9a271.8,271.8,0,0,0-58.13,9,21.89,21.89,0,0,1-15-3,102.48,102.48,0,0,1-4-13c-1.5-6.44-1.41-8.94-1-11,.54-2.75,1.27-3,2-6,.84-3.47,1.16-8.34,0-11-2.28-5.28-12.7-7.84-25.06-5a16.67,16.67,0,0,0-10,11,94.19,94.19,0,0,0-13,4A96,96,0,0,0,1502.11,45.41Z"/><path class="cls-3" d="M1533.68,33.89c-.76-.62-.18-3.61,2-5,2-1.26,4.69-.91,5,0C1541.25,30.45,1535,34.91,1533.68,33.89Z"/><ellipse class="cls-4" cx="1536.19" cy="30.88" rx="2" ry="1.5" transform="translate(527.31 1189.76) rotate(-50.11)"/><path class="cls-5" d="M1548.62,34.72c-2.31,2.25,1.77,8.67,5.65,18.77a120.49,120.49,0,0,1,7.14,29.32,2.58,2.58,0,0,0,1.52,1.31c1.2.29,2.4-1.11,3.38-2.38A39,39,0,0,0,1573,67a11.49,11.49,0,0,0,.34-5,11.23,11.23,0,0,0-1.73-4.14c-2.92-4.81-1.78-6.6-4.42-11.75a22.58,22.58,0,0,0-5.52-7.41C1557.65,35.31,1550.82,32.59,1548.62,34.72Z"/><path class="cls-5" d="M1562.49,80.32c-1.63-1.81-5.32-.84-9.45.23-4.54,1.19-14.55,3.79-18.83,12.15-1.77,3.44-1.5,5.78-2,9.29-.93,6.35-4.21,15.06-14.81,25a7.49,7.49,0,0,0-4.47-.32c-.7.18-3.3.81-3.76,2.43-.66,2.3,3.39,5.17,6.23,7.19,3.13,2.22,5.12,3.63,7.41,3.22s3.63-2.57,5.29-5c4.77-7,3.14-2.36,12.29-14.85,5.15-7,4-6.19,8-11.57,5.95-7.9,8-9,10.92-14.5C1561.11,90.21,1565,83.05,1562.49,80.32Z"/><path class="cls-6" d="M1516.92,58.05a37.06,37.06,0,0,0,9-5.4,37.57,37.57,0,0,0,6.53-6.84"/><path class="cls-2" d="M1745.29,83.74c0-1.33-14.65-1-35.74-5.79a199.38,199.38,0,0,1-25.58-7.6A19,19,0,0,0,1677.7,69c-2.18-.09-5.76-.23-6.56,1.46s1.45,4.64,3.65,6.08c4.34,2.84,9.76.73,10.65.37,3.35,1.18,8.07,2.73,13.81,4.26a125.9,125.9,0,0,0,21.64,4.35C1733.27,86.66,1745.28,85,1745.29,83.74Z"/><path class="cls-4" d="M1502.27,44.65l9-4a15.63,15.63,0,0,1-1,2,17.56,17.56,0,0,1-6,6,3.4,3.4,0,0,1-2-2A3.27,3.27,0,0,1,1502.27,44.65Z"/><path class="cls-5" d="M1649.71,140.23q5.93-7.95,12.54-16.14,3.9-4.83,7.79-9.39a25.42,25.42,0,0,1,1.06-4.89,26,26,0,0,1,1.72-4.14,12.42,12.42,0,0,0,7.28-2.32c5.63-4.25,4.81-12.51,4.61-14.59-1-9.59-8.6-15.24-10.19-16.37a12.47,12.47,0,0,0-8.27-3.44c-5.31.08-8.8,4.37-10.41,6.35-9.66,11.88.82,35.43,1.57,37.07l-12.53,16.14a8.07,8.07,0,0,0-8.69,2.21,18.43,18.43,0,0,0,13.52,9.51Z"/><path class="cls-1" d="M1299.37,29a15.58,15.58,0,0,1,4.14,2.83c5.89,5.62,5.82,14.64,5.79,19.24,0,2.39-.3,5-.34,5.38-.37,3.33-.55,5-1.1,6.29-2.38,5.64-12.51,8.31-14.8,5.66-.58-.67-.82-1.86-.18-4a32.92,32.92,0,0,0,3.36-6.05,20.66,20.66,0,0,0,1.78-6.08,24.91,24.91,0,0,0-.18-5c-.51-8.29,1.33-9.49-.25-13.16-.72-1.67-1.75-2.92-1.18-4S1298.29,29,1299.37,29Z"/><path class="cls-1" d="M1309.19,135.7c1.78,1.83,6-.24,7.25-.85a15.23,15.23,0,0,0,6.24-5.86,151.41,151.41,0,0,0-7.32-17.58c-8-16.22-12.07-17-13.64-17.12a5.45,5.45,0,0,0-4.62,1.93c-1.09,1.57.35,3.66,3.69,11.49,1.51,3.51,1.15,2.89,1.93,4.62a86.3,86.3,0,0,0,8,14l-1.62,3.93C1309,130.59,1307.63,134.09,1309.19,135.7Z"/><path class="cls-1" d="M1449.53,126.25c-.88-2.62-1.85-5.3-2.93-8a171.45,171.45,0,0,0-9.78-20.66c-4.73-.69-10.37-2.38-13-6.9-2.1-3.57-.88-6.29-3.26-8.87-3.2-3.46-10.85-3.65-15-.25-7,5.72-4.78,20.08,1.6,24.08,1.72,1.08,4.16,1.29,9.05,1.72a29.79,29.79,0,0,0,10.38-.6,26.16,26.16,0,0,0,3.43-1.14l9.34,17.39a6.57,6.57,0,0,0-2.46,3.17c-.72,2-.49,4.67.71,5.62C1439.42,133.25,1444.27,131.12,1449.53,126.25Z"/><path class="cls-2" d="M1252.33,45.09a24.68,24.68,0,0,0,4,7,15.43,15.43,0,0,0,6,5,13,13,0,0,0,4,1l14-3a27,27,0,0,1,2,5,27.4,27.4,0,0,1,1,6c.48,6.39,3,7.93,4,14,1.06,6.42-1.44,6.56-1,15,.25,4.67.46,8.76,3,13,5,8.36,14.44,9.93,15,10a22.25,22.25,0,0,0,10-1c12.1-3.52,18.15-5.28,26.06-10,8.72-5.23,25.42-11,60.14-14l34.07,6a19.58,19.58,0,0,0,3-5c.71-1.72,2.88-7,1-12-1-2.57-2.21-3.1-3.25-6.68a39.74,39.74,0,0,1-.76-4.34c-2-5.4-11.36-10.37-42.09-9a271.89,271.89,0,0,0-58.13,9,21.79,21.79,0,0,1-15-3,98.85,98.85,0,0,1-4-13c-1.51-6.44-1.41-8.94-1-11,.54-2.75,1.27-3,2-6,.85-3.47,1.16-8.33,0-11-2.28-5.28-12.7-7.85-25.06-5a16.58,16.58,0,0,0-6,4,16.79,16.79,0,0,0-4,7,95.72,95.72,0,0,0-29.07,12Z"/><path class="cls-3" d="M1283.91,33.56c-.76-.61-.19-3.61,2-5,2-1.26,4.69-.9,5,0C1291.47,30.12,1285.17,34.59,1283.91,33.56Z"/><ellipse class="cls-4" cx="1286.41" cy="30.56" rx="2" ry="1.5" transform="translate(437.97 997.99) rotate(-50.11)"/><path class="cls-5" d="M1298.4,34.63c-1.48,2.87,4.44,7.65,11.34,16a120.88,120.88,0,0,1,16.13,25.51,2.56,2.56,0,0,0,1.85.76c1.23-.11,1.92-1.82,2.44-3.34,1-2.81,2.33-8,1.69-16.09a11.28,11.28,0,0,0-1.28-4.84,11.08,11.08,0,0,0-3-3.37c-4.3-3.63-3.8-5.69-7.94-9.73a22.68,22.68,0,0,0-7.6-5.26C1307.14,32.3,1299.79,31.9,1298.4,34.63Z"/><path class="cls-5" d="M1312.72,80c-1.64-1.81-5.32-.85-9.46.23-4.54,1.18-14.55,3.79-18.83,12.14-1.77,3.44-1.5,5.79-2,9.29-.93,6.35-4.21,15.07-14.8,25a7.45,7.45,0,0,0-4.48-.32c-.7.17-3.3.81-3.76,2.43-.66,2.29,3.39,5.16,6.23,7.18,3.13,2.22,5.12,3.63,7.41,3.22s3.64-2.56,5.3-5c4.76-7,3.13-2.36,12.28-14.85,5.15-7,4-6.18,8-11.56,6-7.91,8-9,10.92-14.51C1311.34,89.88,1315.18,82.72,1312.72,80Z"/><path class="cls-6" d="M1267.14,57.73a37.65,37.65,0,0,0,15.49-12.25"/><path class="cls-2" d="M1499.9,81.66c0-1.34-14.67-.75-35.85-5.11a199.08,199.08,0,0,1-25.72-7.11,18.6,18.6,0,0,0-6.3-1.23c-2.18,0-5.76-.13-6.53,1.59s1.55,4.6,3.77,6c4.39,2.76,9.77.55,10.65.17,3.37,1.11,8.13,2.57,13.9,4a125.32,125.32,0,0,0,21.71,3.93C1487.94,84.81,1499.91,82.86,1499.9,81.66Z"/><path class="cls-4" d="M1252.49,44.33l9-4a16.33,16.33,0,0,1-1,2,17.47,17.47,0,0,1-6,6,3.36,3.36,0,0,1-2-2A3.32,3.32,0,0,1,1252.49,44.33Z"/><path class="cls-5" d="M1408,142.05q5-8.58,10.61-17.47,3.33-5.23,6.66-10.21a25.37,25.37,0,0,1,.5-5,27,27,0,0,1,1.23-4.31,12.36,12.36,0,0,0,7-3.13c5.11-4.87,3.36-13,2.91-15-2-9.43-10.27-14.16-12-15.1a12.48,12.48,0,0,0-8.62-2.47c-5.26.69-8.24,5.35-9.61,7.5-8.24,12.9,4.87,35.1,5.8,36.64L1401.82,131a8.07,8.07,0,0,0-8.37,3.19,18.44,18.44,0,0,0,14.52,7.9Z"/><path class="cls-1" d="M1052.88,27.48a15.69,15.69,0,0,1,4.64,1.88c7,4.25,8.8,13.07,9.75,17.57.49,2.34.77,5,.81,5.34.35,3.32.53,5,.27,6.37-1.13,6-10.46,10.78-13.26,8.68-.71-.54-1.2-1.65-1-3.88a31.82,31.82,0,0,0,2-6.63,20.35,20.35,0,0,0,.45-6.32,24.12,24.12,0,0,0-1.24-4.85c-2.26-8-.71-9.55-3-12.81-1.06-1.48-2.33-2.47-2-3.62C1050.52,28.23,1051.82,27.74,1052.88,27.48Z"/><path class="cls-1" d="M1049.39,29.61a15.66,15.66,0,0,1,4.13,2.83c5.89,5.63,5.83,14.64,5.79,19.24,0,2.39-.3,5-.34,5.39-.36,3.32-.55,5-1.1,6.28-2.37,5.64-12.51,8.31-14.8,5.66-.58-.67-.82-1.86-.17-4a33.38,33.38,0,0,0,3.35-6,21,21,0,0,0,1.79-6.08,24.91,24.91,0,0,0-.18-5c-.52-8.29,1.33-9.48-.26-13.16-.72-1.67-1.75-2.91-1.17-4C1046.92,29.84,1048.3,29.64,1049.39,29.61Z"/><path class="cls-1" d="M1072,134c2.08,1.48,5.86-1.31,7-2.13a15.23,15.23,0,0,0,5.1-6.88,151.14,151.14,0,0,0-10.34-16c-10.76-14.53-14.92-14.62-16.48-14.41a5.48,5.48,0,0,0-4.2,2.73c-.79,1.73,1,3.54,5.69,10.64,2.1,3.19,1.64,2.64,2.72,4.21a86.66,86.66,0,0,0,10.39,12.37l-.89,4.16C1070.89,129,1070.17,132.72,1072,134Z"/><path class="cls-1" d="M1188.61,130.26c-.14-2.76-.34-5.61-.63-8.54a170.65,170.65,0,0,0-3.76-22.54c-4.36-2-9.32-5.12-10.64-10.19-1-4,.88-6.3-.71-9.43-2.13-4.2-9.44-6.47-14.39-4.35-8.35,3.58-10.08,18-5,23.61,1.36,1.5,3.65,2.38,8.23,4.13a30.21,30.21,0,0,0,10.16,2.26,26.71,26.71,0,0,0,3.6-.17l4.23,19.28a6.67,6.67,0,0,0-3.23,2.38c-1.23,1.74-1.75,4.36-.85,5.6C1177,134.23,1182.22,133.51,1188.61,130.26Z"/><path class="cls-2" d="M1002.35,45.69a24.44,24.44,0,0,0,4,7,15.41,15.41,0,0,0,6,5,13.24,13.24,0,0,0,4,1l14-3a26.94,26.94,0,0,1,2,5,28,28,0,0,1,1,6c.48,6.39,3,7.94,4,14,1.06,6.42-1.45,6.56-1,15,.25,4.67.46,8.76,3,13,5,8.37,14.44,9.93,15,10a22.27,22.27,0,0,0,10-1c12.09-3.52,18.14-5.28,26.06-10,8.72-5.22,25.42-11,60.13-14l34.08,6a20.17,20.17,0,0,0,3-5c.71-1.72,2.88-7,1-12-1-2.57-2.22-3.1-3.26-6.67a38.7,38.7,0,0,1-.75-4.35c-2-5.4-11.37-10.37-42.1-9a271.89,271.89,0,0,0-58.13,9,21.81,21.81,0,0,1-15-3,100.4,100.4,0,0,1-4-13c-1.51-6.43-1.41-8.94-1-11,.54-2.75,1.26-3,2-6,.85-3.47,1.16-8.33,0-11-2.28-5.28-12.7-7.85-25-5a16.61,16.61,0,0,0-6,4,16.83,16.83,0,0,0-4,7,97.46,97.46,0,0,0-13,4A96.2,96.2,0,0,0,1002.35,45.69Z"/><path class="cls-3" d="M1033.92,34.16c-.76-.61-.18-3.6,2-5,2-1.26,4.7-.9,5,0C1041.49,30.72,1035.18,35.19,1033.92,34.16Z"/><ellipse class="cls-4" cx="1036.42" cy="31.16" rx="2" ry="1.5" transform="translate(347.84 806.4) rotate(-50.11)"/><path class="cls-5" d="M1048.42,34.64c-1.57,2.82,4.19,7.79,10.81,16.35a120.84,120.84,0,0,1,15.27,26,2.55,2.55,0,0,0,1.83.82c1.23-.06,2-1.75,2.55-3.25,1.07-2.78,2.59-7.93,2.22-16a11.56,11.56,0,0,0-1.11-4.89,11.3,11.3,0,0,0-2.85-3.47c-4.18-3.76-3.61-5.81-7.61-10a22.6,22.6,0,0,0-7.42-5.51C1057.24,32.6,1049.91,32,1048.42,34.64Z"/><path class="cls-5" d="M1057.35,76.31c-1.94-1.48-5.38.14-9.25,2-4.24,2-13.6,6.42-16.27,15.42-1.1,3.71-.4,6-.25,9.5.26,6.41-1.36,15.58-9.94,27.32a7.38,7.38,0,0,0-4.45.51c-.66.3-3.1,1.41-3.26,3.08-.22,2.38,4.29,4.45,7.45,5.91,3.49,1.61,5.71,2.63,7.88,1.8s3.1-3.19,4.28-5.91c3.39-7.79,2.65-2.9,9.34-16.87,3.76-7.86,2.75-6.81,5.73-12.84,4.39-8.87,6.17-10.32,8.06-16.27C1057.82,86.28,1060.27,78.53,1057.35,76.31Z"/><path class="cls-5" d="M1168.24,144.08q2.73-9.54,6-19.53,1.95-5.89,4-11.53a26.87,26.87,0,0,1-.73-5,27.33,27.33,0,0,1,.15-4.48,12.32,12.32,0,0,0,6-4.73c3.78-6,.09-13.41-.83-15.28-4.28-8.64-13.42-11.23-15.31-11.72a12.38,12.38,0,0,0-9-.3c-4.94,2-6.69,7.19-7.5,9.61-4.85,14.53,13.27,32.86,14.55,34.13l-6,19.53a8.11,8.11,0,0,0-4.08,1.21,8.22,8.22,0,0,0-3.27,3.92,18.47,18.47,0,0,0,16,4.13Z"/><path class="cls-6" d="M1017.16,58.33a38.12,38.12,0,0,0,9-5.4,37.48,37.48,0,0,0,6.52-6.85"/><path class="cls-2" d="M1246.88,79.31c0-1.34-14.68-.56-35.91-4.62a199.21,199.21,0,0,1-25.82-6.77,19,19,0,0,0-6.31-1.14c-2.18,0-5.76,0-6.51,1.68s1.61,4.58,3.85,6c4.43,2.69,9.78.41,10.65,0,3.39,1.07,8.16,2.46,14,3.81a125.89,125.89,0,0,0,21.77,3.64C1235,82.62,1246.91,80.51,1246.88,79.31Z"/><path class="cls-4" d="M1002.51,44.93l9-4a16.94,16.94,0,0,1-1,2,17.61,17.61,0,0,1-6,6,3.44,3.44,0,0,1-2-2A3.16,3.16,0,0,1,1002.51,44.93Z"/><path class="cls-1" d="M783.52,34.24a15.86,15.86,0,0,1,5-.2c8.08,1,13.41,8.26,16.13,12,1.42,1.93,2.76,4.2,3,4.52,1.69,2.89,2.54,4.33,2.87,5.7,1.47,5.94-5.06,14.14-8.48,13.38-.87-.19-1.78-1-2.54-3.11a32.3,32.3,0,0,0-.93-6.85,20.55,20.55,0,0,0-2.2-5.95,25.37,25.37,0,0,0-3.13-3.91c-5.37-6.33-4.6-8.4-8.07-10.4-1.58-.91-3.15-1.29-3.31-2.47C781.68,35.9,782.67,34.92,783.52,34.24Z"/><path class="cls-1" d="M799.11,29.33a15.91,15.91,0,0,1,4.13,2.83c5.89,5.63,5.83,14.64,5.79,19.24,0,2.4-.3,5-.34,5.39-.36,3.32-.55,5-1.1,6.28-2.37,5.65-12.51,8.32-14.8,5.66-.58-.67-.82-1.86-.17-4A33.08,33.08,0,0,0,796,58.67a20.87,20.87,0,0,0,1.79-6.08,24.79,24.79,0,0,0-.18-5c-.52-8.29,1.33-9.49-.26-13.16-.72-1.67-1.75-2.92-1.17-4S798,29.36,799.11,29.33Z"/><path class="cls-1" d="M815.16,136c2,1.62,5.94-.89,7.11-1.63a15.25,15.25,0,0,0,5.58-6.5,149.5,149.5,0,0,0-9.19-16.68c-9.7-15.26-13.84-15.65-15.41-15.54A5.46,5.46,0,0,0,798.86,98c-.91,1.68.75,3.61,4.92,11,1.87,3.33,1.45,2.76,2.42,4.39a86.05,86.05,0,0,0,9.48,13.08l-1.18,4.09C814.41,130.92,813.44,134.55,815.16,136Z"/><path class="cls-1" d="M932.19,133.7c.18-2.76.31-5.62.35-8.56a169.89,169.89,0,0,0-1.16-22.83C927.27,99.87,922.7,96.16,922,91c-.57-4.1,1.59-6.15.37-9.45-1.64-4.41-8.64-7.5-13.8-6-8.7,2.6-12.07,16.74-7.7,22.87,1.18,1.65,3.36,2.78,7.71,5a30,30,0,0,0,9.83,3.41,25.28,25.28,0,0,0,3.6.24q1,9.83,2,19.64a6.69,6.69,0,0,0-3.48,2c-1.42,1.58-2.23,4.13-1.48,5.47C920.18,136.31,925.47,136.19,932.19,133.7Z"/><path class="cls-2" d="M752.07,45.41a24.38,24.38,0,0,0,4,7,15.48,15.48,0,0,0,6,5,13,13,0,0,0,4,1l14-3a26.38,26.38,0,0,1,2,5,27.34,27.34,0,0,1,1,6c.48,6.4,3,7.94,4,14,1.06,6.43-1.45,6.57-1,15,.24,4.67.46,8.75,3,13,5,8.36,14.44,9.93,15,10a22.41,22.41,0,0,0,10-1c12.09-3.52,18.14-5.29,26.06-10,8.72-5.22,25.42-11,60.13-14l34.08,6a20,20,0,0,0,3-5c.71-1.72,2.88-7,1-12-1-2.57-2.22-3.1-3.26-6.68a38.7,38.7,0,0,1-.75-4.35c-2-5.39-11.37-10.37-42.1-9a271.89,271.89,0,0,0-58.13,9,21.81,21.81,0,0,1-15-3,100.32,100.32,0,0,1-4-13c-1.51-6.44-1.41-8.94-1-11,.54-2.75,1.26-3,2-6,.85-3.47,1.16-8.34,0-11-2.28-5.28-12.7-7.84-25.05-5a16.65,16.65,0,0,0-10,11,95.82,95.82,0,0,0-29.06,12Z"/><path class="cls-3" d="M783.64,33.89c-.76-.62-.18-3.61,2-5,2-1.26,4.7-.91,5,0C791.21,30.45,784.9,34.91,783.64,33.89Z"/><ellipse class="cls-4" cx="786.15" cy="30.88" rx="2" ry="1.5" transform="translate(258.28 614.27) rotate(-50.11)"/><path class="cls-5" d="M799.7,34c-2.47,2.07,1.14,8.77,4.29,19.12a121.2,121.2,0,0,1,5,29.76,2.53,2.53,0,0,0,1.42,1.41c1.17.38,2.47-.94,3.54-2.13,2-2.22,5.23-6.5,7.76-14.19a11.35,11.35,0,0,0,.7-5A11.23,11.23,0,0,0,821,58.8c-2.57-5-1.31-6.72-3.57-12a22.53,22.53,0,0,0-5-7.79C808.66,35.27,802,32.06,799.7,34Z"/><path class="cls-5" d="M805.75,72.9c-2.17-1.11-5.27,1.1-8.75,3.58-3.82,2.73-12.24,8.74-13.26,18.07-.42,3.85.67,5.94,1.44,9.4,1.4,6.26,1.44,15.57-4.9,28.64a7.6,7.6,0,0,0-4.29,1.3c-.6.41-2.8,1.94-2.66,3.62.21,2.37,5,3.61,8.39,4.48,3.72,1,6.08,1.57,8.07.37s2.48-3.7,3.16-6.58c1.94-8.27,2.09-3.33,6.18-18.26,2.3-8.41,1.49-7.19,3.35-13.66,2.74-9.51,4.23-11.26,5-17.44C808,82.62,809,74.56,805.75,72.9Z"/><path class="cls-5" d="M922.17,144.15q2.12-9.69,4.77-19.88,1.56-6,3.22-11.76a26.43,26.43,0,0,1-1.19-9.38A12.37,12.37,0,0,0,934.64,98c3.39-6.19-.77-13.39-1.81-15.19-4.83-8.35-14.12-10.35-16-10.71a12.48,12.48,0,0,0-9,.27C903,74.66,901.63,80,901,82.47c-3.91,14.81,15.36,31.94,16.72,33.12l-4.77,19.88a8.08,8.08,0,0,0-4,1.46,8.31,8.31,0,0,0-3,4.13,18.44,18.44,0,0,0,16.24,3.09Z"/><path class="cls-6" d="M766.88,58.05A37.32,37.32,0,0,0,782.36,45.8"/><path class="cls-4" d="M752.23,44.65l9-4a17,17,0,0,1-1,2,17.57,17.57,0,0,1-6,6,3.42,3.42,0,0,1-2-2A3.19,3.19,0,0,1,752.23,44.65Z"/><path class="cls-2" d="M995.28,89.62c.15-1.32-14.47-2.57-34.93-9.53a198.83,198.83,0,0,1-24.64-10.26,18.9,18.9,0,0,0-6.1-2c-2.15-.31-5.7-.83-6.67.77s.95,4.76,3,6.42c4,3.29,9.62,1.77,10.55,1.5,3.2,1.52,7.73,3.56,13.28,5.7a127.06,127.06,0,0,0,21.06,6.61C983,91.26,995.13,90.82,995.28,89.62Z"/><path class="cls-1" d="M537.19,32.15a15.68,15.68,0,0,1,4.86,1.23c7.47,3.25,10.52,11.73,12.08,16.06.81,2.25,1.45,4.81,1.54,5.17.8,3.25,1.2,4.87,1.13,6.28C556.52,67,547.93,73,544.86,71.31c-.77-.43-1.41-1.46-1.54-3.7a32.66,32.66,0,0,0,1.06-6.84,20.4,20.4,0,0,0-.43-6.32,25,25,0,0,0-1.89-4.64c-3.35-7.6-2-9.36-4.78-12.26-1.26-1.32-2.65-2.14-2.47-3.32C535,33.22,536.19,32.55,537.19,32.15Z"/><path class="cls-1" d="M549.12,29.06a15.66,15.66,0,0,1,4.13,2.83c5.89,5.62,5.83,14.64,5.8,19.24,0,2.39-.31,5-.35,5.38-.36,3.33-.55,5-1.09,6.29-2.38,5.64-12.52,8.31-14.81,5.66-.58-.68-.82-1.86-.17-4A32.77,32.77,0,0,0,546,58.4a20.66,20.66,0,0,0,1.79-6.08,24.89,24.89,0,0,0-.18-5c-.52-8.29,1.33-9.49-.26-13.16-.72-1.67-1.75-2.92-1.17-4S548,29.09,549.12,29.06Z"/><path class="cls-1" d="M552.42,132.37c1.49,2.08,6,.66,7.29.24a15.24,15.24,0,0,0,7-4.86,151.75,151.75,0,0,0-4.61-18.47c-5.49-17.23-9.39-18.67-10.94-19a5.44,5.44,0,0,0-4.86,1.21c-1.31,1.39-.2,3.68,1.94,11.91,1,3.7.71,3,1.22,4.86a86.05,86.05,0,0,0,5.83,15.08L553.15,127C553,127.29,551.11,130.55,552.42,132.37Z"/><path class="cls-1" d="M679.53,130.84c.43-2.73.82-5.56,1.14-8.49a170.6,170.6,0,0,0,.93-22.83c-3.86-2.81-8.06-6.93-8.31-12.16-.2-4.14,2.14-6,1.23-9.38-1.23-4.55-7.91-8.26-13.19-7.2-8.9,1.79-13.56,15.56-9.77,22.07,1,1.75,3.08,3.08,7.21,5.73a29.77,29.77,0,0,0,9.47,4.29,25,25,0,0,0,3.57.58l.18,19.74a6.64,6.64,0,0,0-3.65,1.66c-1.57,1.45-2.6,3.91-2,5.31C667.32,132.34,672.61,132.7,679.53,130.84Z"/><path class="cls-2" d="M502.08,45.14a24.44,24.44,0,0,0,4,7,15.39,15.39,0,0,0,6,5,13.08,13.08,0,0,0,4,1l14-3a26.94,26.94,0,0,1,2,5,27.43,27.43,0,0,1,1,6c.48,6.4,3,7.94,4,14,1.06,6.42-1.45,6.56-1,15,.24,4.67.46,8.76,3,13,5,8.36,14.44,9.93,15,10a22.27,22.27,0,0,0,10-1c12.09-3.52,18.14-5.28,26.06-10,8.72-5.23,25.42-11,60.13-14l34.08,6a20.17,20.17,0,0,0,3-5c.71-1.73,2.88-7,1-12-1-2.57-2.21-3.1-3.25-6.68a37.63,37.63,0,0,1-.76-4.34c-2-5.4-11.37-10.37-42.1-9a271.38,271.38,0,0,0-58.13,9,21.81,21.81,0,0,1-15-3,102,102,0,0,1-4-13c-1.51-6.44-1.41-8.94-1-11,.54-2.74,1.26-3,2-6,.85-3.47,1.17-8.33,0-11-2.28-5.29-12.7-7.85-25.05-5a16.65,16.65,0,0,0-10,11,95.81,95.81,0,0,0-29.06,12Z"/><path class="cls-3" d="M533.65,33.61c-.76-.62-.18-3.61,2-5,2-1.26,4.7-.9,5,0C541.22,30.17,534.91,34.64,533.65,33.61Z"/><ellipse class="cls-4" cx="536.16" cy="30.6" rx="2" ry="1.5" transform="translate(168.83 422.36) rotate(-50.11)"/><path class="cls-5" d="M550.5,32.7c-3.06,1-2.19,8.58-3.11,19.36A120.32,120.32,0,0,1,541,81.55a2.52,2.52,0,0,0,.8,1.84c.94.79,2.64,0,4.07-.67,2.67-1.32,7.28-4.08,12.48-10.29a11.36,11.36,0,0,0,2.49-4.35,11,11,0,0,0,.25-4.47c-.52-5.61,1.29-6.73,1.16-12.51A22.76,22.76,0,0,0,560.53,42C558.37,37.18,553.41,31.74,550.5,32.7Z"/><path class="cls-5" d="M558.2,71.26c-2.23-1-5.2,1.4-8.53,4.07-3.67,2.94-11.74,9.4-12.23,18.78-.21,3.86,1,5.89,2,9.3,1.75,6.18,2.31,15.47-3.3,28.88a7.46,7.46,0,0,0-4.21,1.53c-.57.45-2.69,2.09-2.45,3.76.34,2.36,5.21,3.33,8.62,4,3.77.75,6.16,1.23,8.08-.08s2.28-3.83,2.79-6.75c1.48-8.37,1.9-3.44,5.15-18.58,1.83-8.52,1.09-7.26,2.59-13.82,2.2-9.65,3.59-11.48,4-17.7C561,80.85,561.56,72.74,558.2,71.26Z"/><path class="cls-6" d="M516.89,57.77a37.4,37.4,0,0,0,15.48-12.24"/><path class="cls-2" d="M743.44,97c.27-1.31-14.18-3.85-33.94-12.6A198.94,198.94,0,0,1,685.87,72,19,19,0,0,0,680,69.46c-2.12-.51-5.61-1.34-6.72.17s.53,4.82,2.4,6.66c3.71,3.63,9.44,2.61,10.38,2.43,3.06,1.8,7.39,4.24,12.72,6.85A126.3,126.3,0,0,0,719.15,94C731.08,97.55,743.19,98.19,743.44,97Z"/><path class="cls-4" d="M502.24,44.37l9-4a17,17,0,0,1-1,2,17.49,17.49,0,0,1-6,6,3.42,3.42,0,0,1-2-2A3.2,3.2,0,0,1,502.24,44.37Z"/><path class="cls-5" d="M698.82,133.26q-2.72-9.54-5.21-19.77-1.46-6-2.72-11.88a26.31,26.31,0,0,1-3.25-3.83,25.92,25.92,0,0,1-2.24-3.88A12.32,12.32,0,0,0,688,86.72c0-7.06-7-11.43-8.79-12.52-8.2-5.08-17.33-2.44-19.19-1.86a12.49,12.49,0,0,0-7.76,4.49c-3.16,4.26-1.87,9.64-1.28,12.12,3.57,14.89,28.65,20.86,30.41,21.26q2.6,9.89,5.2,19.77a8,8,0,0,0-3.51,8.24,18.47,18.47,0,0,0,15.76-5Z"/><path class="cls-1" d="M301.68,32.65a16,16,0,0,1,4.86,1.23C314,37.14,317.05,45.63,318.6,50c.8,2.26,1.44,4.82,1.53,5.18.8,3.25,1.2,4.87,1.13,6.28-.29,6.11-8.89,12.11-11.95,10.4-.78-.43-1.41-1.46-1.54-3.7a32.68,32.68,0,0,0,1.06-6.83,20.43,20.43,0,0,0-.41-6.33,25.27,25.27,0,0,0-1.89-4.64c-3.34-7.6-2-9.36-4.77-12.27-1.25-1.32-2.65-2.13-2.47-3.31C299.45,33.71,300.67,33.05,301.68,32.65Z"/><path class="cls-1" d="M299,29.34a15.58,15.58,0,0,1,4.14,2.83c5.89,5.62,5.82,14.64,5.79,19.24,0,2.39-.3,5-.34,5.38-.37,3.33-.55,5-1.1,6.29-2.38,5.64-12.51,8.31-14.8,5.66-.58-.68-.82-1.87-.17-4a33.38,33.38,0,0,0,3.35-6.05,20.66,20.66,0,0,0,1.78-6.08,24.89,24.89,0,0,0-.18-5c-.51-8.29,1.33-9.49-.25-13.16-.72-1.67-1.75-2.92-1.18-4S297.93,29.37,299,29.34Z"/><path class="cls-1" d="M304,136.33c1.49,2.08,6,.66,7.29.25a15.31,15.31,0,0,0,7.05-4.86,151.5,151.5,0,0,0-4.61-18.48c-5.49-17.23-9.39-18.66-10.94-19A5.44,5.44,0,0,0,298,95.49c-1.31,1.39-.19,3.68,1.94,11.91,1,3.7.71,3,1.22,4.86A86.05,86.05,0,0,0,307,127.34L304.77,131C304.61,131.26,302.73,134.51,304,136.33Z"/><path class="cls-1" d="M413.41,135.77c1.42-2.37,2.83-4.85,4.21-7.45A170.1,170.1,0,0,0,427,107.47c-2.54-4-4.91-9.43-3.2-14.38,1.36-3.92,4.22-4.75,4.64-8.24.55-4.68-4.27-10.62-9.57-11.6-8.93-1.65-18.38,9.4-17.28,16.85.3,2,1.72,4,4.56,8a29.9,29.9,0,0,0,7.2,7.51,26.66,26.66,0,0,0,3.09,1.87l-7.17,18.39a6.64,6.64,0,0,0-4,.18c-2,.77-3.87,2.66-3.81,4.19C401.52,132.62,406.29,134.92,413.41,135.77Z"/><path class="cls-2" d="M252,45.42a24.68,24.68,0,0,0,4,7,15.5,15.5,0,0,0,6,5,13,13,0,0,0,4,1l14-3a26.3,26.3,0,0,1,2,5,27.34,27.34,0,0,1,1,6c.48,6.4,3,7.94,4,14,1.06,6.42-1.44,6.56-1,15,.25,4.67.46,8.76,3,13,5,8.36,14.44,9.93,15,10a22.24,22.24,0,0,0,10-1c12.1-3.52,18.15-5.28,26.06-10,8.72-5.23,25.42-11,60.14-14l34.08,6a19.89,19.89,0,0,0,3-5c.71-1.73,2.88-7,1-12-.95-2.57-2.21-3.1-3.25-6.68a36.36,36.36,0,0,1-.75-4.35c-2-5.39-11.37-10.36-42.1-9a271.89,271.89,0,0,0-58.13,9,21.85,21.85,0,0,1-15-3,98.85,98.85,0,0,1-4-13c-1.51-6.44-1.41-8.94-1-11,.54-2.74,1.27-3,2-6,.85-3.47,1.16-8.33,0-11-2.28-5.29-12.7-7.85-25.06-5a16.67,16.67,0,0,0-10,11,94.19,94.19,0,0,0-13,4A95.57,95.57,0,0,0,252,45.42Z"/><path class="cls-3" d="M283.55,33.89c-.76-.62-.19-3.61,2-5,2-1.26,4.69-.9,5,0C291.12,30.45,284.81,34.92,283.55,33.89Z"/><ellipse class="cls-4" cx="286.05" cy="30.88" rx="2" ry="1.5" transform="translate(78.91 230.56) rotate(-50.11)"/><path class="cls-5" d="M300.35,33.32c-3.17.59-3.33,8.19-5.72,18.75A120.81,120.81,0,0,1,284.3,80.42a2.57,2.57,0,0,0,.53,1.93c.84.91,2.62.4,4.14-.11,2.81-.94,7.76-3.06,13.76-8.5a11.34,11.34,0,0,0,3.06-4,11.1,11.1,0,0,0,.86-4.39c.24-5.63,2.18-6.49,2.85-12.24a22.57,22.57,0,0,0-.49-9.22C307.54,38.82,303.37,32.76,300.35,33.32Z"/><path class="cls-5" d="M301.61,70c-2.43-.12-4.34,3.18-6.49,6.87-2.36,4.06-7.55,13-4.63,21.93,1.2,3.68,3.06,5.14,5.19,8,3.85,5.13,7.73,13.59,7.34,28.12a7.54,7.54,0,0,0-3.38,3c-.37.62-1.75,2.92-.92,4.39,1.17,2.08,6,1.23,9.48.63,3.79-.66,6.19-1.08,7.51-3s.74-4.39.17-7.29c-1.64-8.34.53-3.89-1.9-19.19-1.37-8.6-1.61-7.16-2.58-13.83-1.42-9.78-.79-12-2.62-18C307.66,77.9,305.28,70.13,301.61,70Z"/><path class="cls-5" d="M449.06,135.61q-3.1-9.41-6-19.54-1.69-6-3.19-11.77a25.71,25.71,0,0,1-3.39-3.69,26.32,26.32,0,0,1-2.4-3.79,12.38,12.38,0,0,0,2.3-7.28c-.23-7.05-7.47-11.14-9.28-12.16-8.39-4.75-17.41-1.75-19.25-1.1a12.45,12.45,0,0,0-7.58,4.79c-3,4.38-1.49,9.71-.79,12.16,4.15,14.74,29.44,19.72,31.21,20q3,9.77,6,19.54a8.14,8.14,0,0,0-2.69,3.29,8.24,8.24,0,0,0-.5,5.09,18.49,18.49,0,0,0,15.56-5.59Z"/><path class="cls-6" d="M266.78,58.05a37.35,37.35,0,0,0,15.49-12.24"/><path class="cls-2" d="M487.72,108.17c.52-1.23-13.16-6.54-30.84-19a200.55,200.55,0,0,1-20.75-16.78,18.87,18.87,0,0,0-5.28-3.64c-2-.91-5.24-2.41-6.63-1.15s-.42,4.84,1.06,7C428.21,78.92,434,79,435,79c2.65,2.37,6.43,5.6,11.15,9.21a126.35,126.35,0,0,0,18.35,12.27C475.49,106.29,487.25,109.28,487.72,108.17Z"/><path class="cls-4" d="M252.14,44.65l9-4a15.75,15.75,0,0,1-1,2,17.56,17.56,0,0,1-6,6,3.37,3.37,0,0,1-2-2A3.19,3.19,0,0,1,252.14,44.65Z"/><path class="cls-1" d="M50.72,32.62a16,16,0,0,1,5,.77c7.73,2.54,11.56,10.71,13.51,14.87,1,2.17,1.89,4.66,2,5,1.1,3.16,1.65,4.74,1.71,6.14C73.2,65.53,65.2,72.31,62,70.9c-.81-.36-1.54-1.33-1.88-3.54a32.72,32.72,0,0,0,.42-6.91,20.76,20.76,0,0,0-1-6.26,24.69,24.69,0,0,0-2.32-4.44c-4-7.26-2.88-9.13-5.89-11.77-1.37-1.19-2.84-1.88-2.77-3.07C48.6,33.89,49.76,33.11,50.72,32.62Z"/><path class="cls-1" d="M48.6,29a15.58,15.58,0,0,1,4.14,2.83c5.89,5.63,5.82,14.64,5.79,19.24,0,2.4-.3,5-.34,5.39-.37,3.32-.55,5-1.1,6.28-2.38,5.64-12.51,8.31-14.8,5.66-.58-.67-.82-1.86-.18-4a32.92,32.92,0,0,0,3.36-6,20.57,20.57,0,0,0,1.78-6.08,24.91,24.91,0,0,0-.18-5c-.51-8.28,1.33-9.48-.25-13.16-.72-1.67-1.75-2.91-1.18-4S47.52,29,48.6,29Z"/><path class="cls-1" d="M46.43,135c.88,2.39,5.58,2.21,7,2.16a15.32,15.32,0,0,0,8.08-2.82,150.84,150.84,0,0,0,.44-19c-.74-18.05-4.12-20.46-5.53-21.15a5.48,5.48,0,0,0-5-.12c-1.63,1-1.16,3.49-1.28,12-.05,3.81-.12,3.1-.11,5a85.83,85.83,0,0,0,1.63,16.06l-3.07,2.93C48.32,130.3,45.65,132.94,46.43,135Z"/><path class="cls-1" d="M158.59,142q2.83-3,5.68-6.4a168.74,168.74,0,0,0,13.52-18.43c-1.63-4.48-2.82-10.25-.11-14.73,2.14-3.55,5.12-3.76,6.25-7.09,1.53-4.46-2-11.28-6.93-13.34-8.38-3.48-19.93,5.35-20.42,12.86-.13,2,.84,4.27,2.79,8.78a30,30,0,0,0,5.46,8.85,25.33,25.33,0,0,0,2.64,2.47l-10.86,16.48a6.62,6.62,0,0,0-4-.65c-2.11.33-4.34,1.78-4.61,3.29C147.63,136.48,151.81,139.73,158.59,142Z"/><path class="cls-2" d="M1.56,45.07a24.62,24.62,0,0,0,4,7,15.51,15.51,0,0,0,6,5,13.24,13.24,0,0,0,4,1l14-3a27,27,0,0,1,2,5,27.4,27.4,0,0,1,1,6c.48,6.39,3,7.94,4,14,1.06,6.43-1.44,6.56-1,15,.25,4.68.46,8.76,3,13,5,8.37,14.44,9.94,15,10a22.24,22.24,0,0,0,10-1c12.1-3.52,18.15-5.28,26.06-10,8.72-5.22,25.42-11,60.14-14l34.07,6a19.4,19.4,0,0,0,3-5c.71-1.72,2.88-7,1-12-.95-2.57-2.21-3.1-3.25-6.67a39.76,39.76,0,0,1-.76-4.35c-2-5.39-11.36-10.37-42.09-9a271.89,271.89,0,0,0-58.13,9,21.79,21.79,0,0,1-15-3,98.85,98.85,0,0,1-4-13c-1.51-6.43-1.41-8.93-1-11,.54-2.75,1.27-3,2-6,.85-3.46,1.16-8.33,0-11-2.28-5.28-12.7-7.85-25.06-5a16.68,16.68,0,0,0-10,11,95.72,95.72,0,0,0-29.07,12Z"/><path class="cls-3" d="M33.14,33.54c-.76-.61-.19-3.6,2-5,2-1.26,4.69-.9,5,0C40.7,30.11,34.4,34.57,33.14,33.54Z"/><ellipse class="cls-4" cx="35.64" cy="30.54" rx="2" ry="1.5" transform="translate(-10.65 38.3) rotate(-50.11)"/><path class="cls-5" d="M51.19,33.24c-3.22.08-4.58,7.57-8.59,17.62A120.36,120.36,0,0,1,27.93,77.23a2.61,2.61,0,0,0,.23,2c.68,1,2.52.82,4.1.55,2.93-.49,8.14-1.8,14.93-6.23a11.48,11.48,0,0,0,3.64-3.44,11.19,11.19,0,0,0,1.54-4.21c1.13-5.51,3.18-6.06,4.74-11.63a22.71,22.71,0,0,0,1-9.19C57.43,39.81,54.26,33.17,51.19,33.24Z"/><path class="cls-5" d="M54.14,73.25c-2.42.31-3.73,3.88-5.21,7.89-1.62,4.41-5.19,14.11-.77,22.4,1.81,3.42,3.89,4.53,6.48,6.95,4.69,4.39,10,12.06,12.09,26.44a7.41,7.41,0,0,0-2.81,3.49c-.26.67-1.23,3.17-.16,4.48,1.51,1.84,6.18.16,9.45-1,3.62-1.31,5.91-2.13,6.88-4.25s0-4.45-1.1-7.21c-3-7.93-.15-3.93-5.18-18.57-2.84-8.24-2.82-6.78-4.92-13.18C65.79,91.28,66,89,63.21,83.43,61.47,80,57.78,72.78,54.14,73.25Z"/><path class="cls-5" d="M210.75,131.85q-5.62-8.16-11.27-17-3.31-5.25-6.39-10.38a27.81,27.81,0,0,1-4.3-2.58,26,26,0,0,1-3.36-3,12.42,12.42,0,0,0,.13-7.63c-2.21-6.7-10.31-8.58-12.33-9-9.4-2.17-17.2,3.25-18.78,4.4a12.46,12.46,0,0,0-5.91,6.74c-1.63,5,1.32,9.73,2.68,11.89,8.15,13,33.82,10.58,35.61,10.39l11.27,17a8.09,8.09,0,0,0-.69,8.94,18.44,18.44,0,0,0,13.34-9.76Z"/><path class="cls-6" d="M16.37,57.71a37.06,37.06,0,0,0,9-5.4,37.58,37.58,0,0,0,6.53-6.85"/><path class="cls-2" d="M235,114.84c.65-1.17-12.4-7.87-28.7-22.08a199.36,199.36,0,0,1-18.89-18.84,18.92,18.92,0,0,0-4.88-4.18c-1.87-1.11-5-2.94-6.47-1.82s-.92,4.76.33,7.08c2.46,4.55,8.24,5.28,9.19,5.39C188,83,191.43,86.62,195.75,90.7a126.81,126.81,0,0,0,17,14.11C223.07,111.7,234.46,115.89,235,114.84Z"/><path class="cls-4" d="M1.73,44.31l9-4a15.65,15.65,0,0,1-1,2,17.51,17.51,0,0,1-6,6,3.39,3.39,0,0,1-2-2A3.16,3.16,0,0,1,1.73,44.31Z"/></svg>
